<svg width="778" height="753" viewBox="0 0 778 753" fill="none" xmlns="http://www.w3.org/2000/svg">
<g id="Puppy">
<path id="tongue" d="M322.333 553V686.333C322.333 686.333 322.333 753 389 753C455.667 753 455.667 686.333 455.667 686.333V553H322.333Z" fill="#DD2E44"/>
<g id="head">
<path id="Vector" d="M699.089 433.422C699.089 572.889 587.978 572.889 587.978 572.889H187.978C187.978 572.889 76.8667 572.889 76.8667 433.422C76.8667 284 187.978 19.6667 387.978 19.6667C587.978 19.6667 699.089 306.222 699.089 433.422Z" fill="#D99E82"/>
<path id="nose" d="M389 397.444C233.444 397.444 166.778 475.822 166.778 539.556C166.778 571.971 179.655 603.059 202.576 625.98C225.497 648.901 256.585 661.778 289 661.778C324.667 661.778 356.6 647.022 378.978 600.289C379.852 598.368 381.261 596.739 383.037 595.597C384.812 594.455 386.878 593.847 388.989 593.847C391.1 593.847 393.166 594.455 394.941 595.597C396.716 596.739 398.125 598.368 399 600.289C421.378 647.022 453.333 661.778 488.978 661.778C521.393 661.778 552.481 648.901 575.402 625.98C598.323 603.059 611.2 571.971 611.2 539.556C611.222 475.822 544.556 397.444 389 397.444Z" fill="#F4C7B5"/>
<path id="Vector_2" d="M322.333 33.1778C298.8 1.86666 248.578 -27.4222 51.8445 46.3333C-40.2444 80.8667 4.73334 348.644 76.4444 366C101.022 366 174.8 366 174.8 169.289C174.8 164.4 174.756 159.889 174.689 155.4C219 92.9556 266.778 60.9333 322.333 33.1778ZM726.156 46.3333C529.422 -27.4222 479.2 1.86666 455.667 33.1778C511.222 60.9556 559 92.9778 603.311 155.422C603.244 159.889 603.2 164.4 603.2 169.311C603.2 366.022 676.956 366.022 701.556 366.022C773.267 348.644 818.244 80.8667 726.156 46.3333Z" fill="#662113"/>
<path id="Vector_3" d="M208.622 113.711C202.867 98.7556 194.533 82.6667 182.489 70.6222C180.426 68.559 177.976 66.9224 175.281 65.8058C172.585 64.6892 169.696 64.1145 166.778 64.1145C163.86 64.1145 160.971 64.6892 158.275 65.8058C155.579 66.9224 153.13 68.559 151.067 70.6222C149.003 72.6854 147.367 75.1348 146.25 77.8305C145.134 80.5263 144.559 83.4155 144.559 86.3333C144.559 89.2512 145.134 92.1404 146.25 94.8361C147.367 97.5318 149.003 99.9812 151.067 102.044C163.733 114.711 174.756 145.022 174.8 154.178C178.022 145.2 193.444 128.622 208.622 113.711ZM569 113.711C574.756 98.7778 583.089 82.6667 595.133 70.6222C597.197 68.559 599.646 66.9224 602.342 65.8058C605.037 64.6892 607.927 64.1145 610.844 64.1145C613.762 64.1145 616.652 64.6892 619.347 65.8058C622.043 66.9224 624.492 68.559 626.556 70.6222C628.619 72.6854 630.255 75.1348 631.372 77.8305C632.489 80.5263 633.063 83.4155 633.063 86.3333C633.063 89.2512 632.489 92.1404 631.372 94.8361C630.255 97.5318 628.619 99.9812 626.556 102.044C613.889 114.711 602.867 145.022 602.822 154.178C599.6 145.2 584.178 128.622 569 113.711Z" fill="#380F09"/>
<path id="nose_2" d="M322.473 461.667C300.25 483.889 366.917 550.556 389.139 550.556C411.361 550.556 478.028 483.889 455.806 461.667C433.584 439.444 344.695 439.444 322.473 461.667Z" fill="#292F33"/>
<path id="right_eye" d="M500.444 375.333C476 375.333 456 355.333 456 330.889V286.444C456 262 476 242 500.444 242C524.889 242 544.889 262 544.889 286.444V330.889C544.889 355.333 524.889 375.333 500.444 375.333Z" fill="#292F33"/>
<path id="left_eye" d="M277.444 375.333C253 375.333 233 355.333 233 330.889V286.444C233 262 253 242 277.444 242C301.889 242 321.889 262 321.889 286.444V330.889C321.889 355.333 301.889 375.333 277.444 375.333Z" fill="#292F33"/>
</g>
<g id="eyes">
<circle id="Ellipse 1" cx="278" cy="309" r="19" fill="white"/>
<circle id="Ellipse 2" cx="501" cy="309" r="19" fill="white"/>
</g>
</g>
</svg>
